<svg xmlns="http://www.w3.org/2000/svg" width="32" height="32" viewBox="0 0 32 32">
    <g fill="none" fill-rule="evenodd">
        <path fill="#CF0A2C" d="M3.724 5.786c-.04.014-.024.07.018.064a23.475 23.475 0 0 1 3.453-.253c4.267 0 8.165 1.13 11.148 2.996-6.68-.905-14.879.22-18.322 1.463-.037.014-.022.067.017.061 1.12-.167 2.281-.255 3.47-.255 9.372 0 16.97 5.452 16.97 12.177 0 2.206-1.229 4.51-2.035 5.784-.044.069.053.138.106.076L31.91 12.358c1.018-10.77-21.766-8.88-28.186-6.572"/>
        <path fill="#AB162B" d="M23.457 21.187a9.078 9.078 0 0 0 .642-3.339c0-3.693-2.16-7.004-5.756-9.255a39.634 39.634 0 0 0-4.6-.323c5.853 1.951 9.896 6.2 9.896 11.136 0 .605-.062 1.201-.182 1.781"/>
    </g>
</svg>
